<svg width="33" height="33" viewBox="0 0 33 33" fill="none" xmlns="http://www.w3.org/2000/svg">
<path d="M16.6668 3.16663C24.0308 3.16663 30.0002 9.13596 30.0002 16.5C30.0002 23.864 24.0308 29.8333 16.6668 29.8333C9.30283 29.8333 3.3335 23.864 3.3335 16.5C3.3335 9.13596 9.30283 3.16663 16.6668 3.16663ZM16.6668 8.49996C16.3132 8.49996 15.9741 8.64044 15.724 8.89048C15.474 9.14053 15.3335 9.47967 15.3335 9.83329V16.5C15.3336 16.8536 15.4741 17.1926 15.7242 17.4426L19.7242 21.4426C19.9756 21.6855 20.3124 21.8199 20.662 21.8169C21.0116 21.8138 21.346 21.6736 21.5933 21.4264C21.8405 21.1792 21.9807 20.8448 21.9837 20.4952C21.9868 20.1456 21.8524 19.8088 21.6095 19.5573L18.0002 15.948V9.83329C18.0002 9.47967 17.8597 9.14053 17.6096 8.89048C17.3596 8.64044 17.0205 8.49996 16.6668 8.49996Z" fill="#191919" fill-opacity="0.3"/>
</svg>
