<svg width="152" height="128" viewBox="0 0 152 128" fill="none" xmlns="http://www.w3.org/2000/svg">
<g filter="url(#filter0_d_1_2)">
<mask id="path-1-inside-1_1_2" fill="white">
<path fill-rule="evenodd" clip-rule="evenodd" d="M122 23C122 21.3431 120.657 20 119 20H33C31.3431 20 30 21.3431 30 23V80.26C30 81.9168 31.3431 83.26 33 83.26H69.6692C70.6652 83.26 71.5963 83.7543 72.1543 84.5794L73.5149 86.5912C74.7046 88.3504 77.2953 88.3504 78.485 86.5912L79.8456 84.5794C80.4035 83.7543 81.3346 83.26 82.3306 83.26H119C120.657 83.26 122 81.9168 122 80.26V23Z"/>
</mask>
<path fill-rule="evenodd" clip-rule="evenodd" d="M122 23C122 21.3431 120.657 20 119 20H33C31.3431 20 30 21.3431 30 23V80.26C30 81.9168 31.3431 83.26 33 83.26H69.6692C70.6652 83.26 71.5963 83.7543 72.1543 84.5794L73.5149 86.5912C74.7046 88.3504 77.2953 88.3504 78.485 86.5912L79.8456 84.5794C80.4035 83.7543 81.3346 83.26 82.3306 83.26H119C120.657 83.26 122 81.9168 122 80.26V23Z" fill="white"/>
<path d="M79.8456 84.5794L79.0172 84.0192L79.8456 84.5794ZM73.5149 86.5912L74.3432 86.031L73.5149 86.5912ZM78.485 86.5912L79.3133 87.1514L78.485 86.5912ZM33 21H119V19H33V21ZM31 80.26V23H29V80.26H31ZM69.6692 82.26H33V84.26H69.6692V82.26ZM74.3432 86.031L72.9827 84.0191L71.3259 85.1396L72.6865 87.1514L74.3432 86.031ZM79.0172 84.0192L77.6566 86.031L79.3133 87.1514L80.6739 85.1396L79.0172 84.0192ZM119 82.26H82.3306V84.26H119V82.26ZM121 23V80.26H123V23H121ZM119 84.26C121.209 84.26 123 82.4691 123 80.26H121C121 81.3645 120.105 82.26 119 82.26V84.26ZM80.6739 85.1396C81.0459 84.5895 81.6666 84.26 82.3306 84.26V82.26C81.0026 82.26 79.7612 82.9191 79.0172 84.0192L80.6739 85.1396ZM72.6865 87.1514C74.2728 89.497 77.7271 89.497 79.3133 87.1514L77.6566 86.031C76.8635 87.2038 75.1364 87.2038 74.3432 86.031L72.6865 87.1514ZM69.6692 84.26C70.3332 84.26 70.954 84.5895 71.3259 85.1396L72.9827 84.0191C72.2387 82.9191 70.9973 82.26 69.6692 82.26V84.26ZM29 80.26C29 82.4691 30.7909 84.26 33 84.26V82.26C31.8954 82.26 31 81.3645 31 80.26H29ZM119 21C120.105 21 121 21.8954 121 23H123C123 20.7909 121.209 19 119 19V21ZM33 19C30.7909 19 29 20.7909 29 23H31C31 21.8954 31.8954 21 33 21V19Z" fill="#D8E0F7" mask="url(#path-1-inside-1_1_2)"/>
<ellipse cx="90.4894" cy="43.5" rx="1.48936" ry="1.5" fill="#5F82FF"/>
<ellipse cx="90.4894" cy="43.5" rx="1.48936" ry="1.5" fill="#5F82FF"/>
<ellipse cx="90.4894" cy="43.5" rx="1.48936" ry="1.5" fill="#5F82FF"/>
<ellipse cx="75.4894" cy="35.5" rx="1.48936" ry="1.5" fill="#5F82FF"/>
<ellipse cx="84.4894" cy="37.5" rx="1.48936" ry="1.5" fill="#5F82FF"/>
<path d="M59 53.25C59 50 60.5 47.5 60.5 47.5" stroke="#5F82FF" stroke-width="4" stroke-linecap="round" stroke-linejoin="round"/>
<path fill-rule="evenodd" clip-rule="evenodd" d="M80.8718 56.1814C82.8466 54.0723 82.7263 50.774 80.6033 48.8143C78.4802 46.8546 63.7708 38.958 63.0484 39.7295C62.3261 40.501 71.3291 54.4921 73.4521 56.4518C75.5752 58.4115 78.8971 58.2904 80.8718 56.1814ZM78.5267 52.5784C78.4968 51.7564 77.8014 51.1145 76.9735 51.1447C76.1456 51.1749 75.4988 51.8657 75.5287 52.6877C75.5587 53.5097 76.2541 54.1516 77.082 54.1215C77.9099 54.0913 78.5567 53.4004 78.5267 52.5784Z" fill="#5F82FF"/>
<ellipse cx="61.2341" cy="62.25" rx="1.48936" ry="1.5" fill="#5F82FF"/>
<ellipse cx="67.1914" cy="68.25" rx="1.48936" ry="1.5" fill="#5F82FF"/>
<ellipse cx="76.1276" cy="70.5" rx="1.48936" ry="1.5" fill="#5F82FF"/>
<ellipse cx="85.0637" cy="68.25" rx="1.48936" ry="1.5" fill="#5F82FF"/>
<ellipse cx="90.2766" cy="62.25" rx="1.48936" ry="1.5" fill="#5F82FF"/>
<ellipse cx="92.5105" cy="53.25" rx="1.48936" ry="1.5" fill="#5F82FF"/>
</g>
<defs>
<filter id="filter0_d_1_2" x="0" y="0" width="152" height="127.911" filterUnits="userSpaceOnUse" color-interpolation-filters="sRGB">
<feFlood flood-opacity="0" result="BackgroundImageFix"/>
<feColorMatrix in="SourceAlpha" type="matrix" values="0 0 0 0 0 0 0 0 0 0 0 0 0 0 0 0 0 0 127 0" result="hardAlpha"/>
<feOffset dy="10"/>
<feGaussianBlur stdDeviation="15"/>
<feColorMatrix type="matrix" values="0 0 0 0 0.894415 0 0 0 0 0.918495 0 0 0 0 0.984716 0 0 0 1 0"/>
<feBlend mode="normal" in2="BackgroundImageFix" result="effect1_dropShadow_1_2"/>
<feBlend mode="normal" in="SourceGraphic" in2="effect1_dropShadow_1_2" result="shape"/>
</filter>
</defs>
</svg>
