<svg width="152" height="128" viewBox="0 0 152 128" fill="none" xmlns="http://www.w3.org/2000/svg">
<g filter="url(#filter0_d_3_23)">
<g filter="url(#filter1_d_3_23)">
<mask id="path-1-inside-1_3_23" fill="white">
<path fill-rule="evenodd" clip-rule="evenodd" d="M122 23C122 21.3431 120.657 20 119 20H33C31.3431 20 30 21.3431 30 23V80.26C30 81.9168 31.3431 83.26 33 83.26H69.6692C70.6652 83.26 71.5963 83.7543 72.1543 84.5794L73.5149 86.5912C74.7046 88.3504 77.2953 88.3504 78.485 86.5912L79.8456 84.5794C80.4035 83.7543 81.3346 83.26 82.3306 83.26H119C120.657 83.26 122 81.9168 122 80.26V23Z"/>
</mask>
<path fill-rule="evenodd" clip-rule="evenodd" d="M122 23C122 21.3431 120.657 20 119 20H33C31.3431 20 30 21.3431 30 23V80.26C30 81.9168 31.3431 83.26 33 83.26H69.6692C70.6652 83.26 71.5963 83.7543 72.1543 84.5794L73.5149 86.5912C74.7046 88.3504 77.2953 88.3504 78.485 86.5912L79.8456 84.5794C80.4035 83.7543 81.3346 83.26 82.3306 83.26H119C120.657 83.26 122 81.9168 122 80.26V23Z" fill="white"/>
<path d="M79.8456 84.5794L79.0172 84.0192L79.8456 84.5794ZM73.5149 86.5912L74.3432 86.031L73.5149 86.5912ZM78.485 86.5912L79.3133 87.1514L78.485 86.5912ZM33 21H119V19H33V21ZM31 80.26V23H29V80.26H31ZM69.6692 82.26H33V84.26H69.6692V82.26ZM74.3432 86.031L72.9827 84.0191L71.3259 85.1396L72.6865 87.1514L74.3432 86.031ZM79.0172 84.0192L77.6566 86.031L79.3133 87.1514L80.6739 85.1396L79.0172 84.0192ZM119 82.26H82.3306V84.26H119V82.26ZM121 23V80.26H123V23H121ZM119 84.26C121.209 84.26 123 82.4691 123 80.26H121C121 81.3645 120.105 82.26 119 82.26V84.26ZM80.6739 85.1396C81.0459 84.5895 81.6666 84.26 82.3306 84.26V82.26C81.0026 82.26 79.7612 82.9191 79.0172 84.0192L80.6739 85.1396ZM72.6865 87.1514C74.2728 89.497 77.7271 89.497 79.3133 87.1514L77.6566 86.031C76.8635 87.2038 75.1364 87.2038 74.3432 86.031L72.6865 87.1514ZM69.6692 84.26C70.3332 84.26 70.954 84.5895 71.3259 85.1396L72.9827 84.0191C72.2387 82.9191 70.9973 82.26 69.6692 82.26V84.26ZM29 80.26C29 82.4691 30.7909 84.26 33 84.26V82.26C31.8954 82.26 31 81.3645 31 80.26H29ZM119 21C120.105 21 121 21.8954 121 23H123C123 20.7909 121.209 19 119 19V21ZM33 19C30.7909 19 29 20.7909 29 23H31C31 21.8954 31.8954 21 33 21V19Z" fill="#D8E0F7" mask="url(#path-1-inside-1_3_23)"/>
<mask id="path-3-inside-2_3_23" fill="white">
<path fill-rule="evenodd" clip-rule="evenodd" d="M122 23C122 21.3431 120.657 20 119 20H33C31.3431 20 30 21.3431 30 23V80.26C30 81.9168 31.3431 83.26 33 83.26H69.6692C70.6652 83.26 71.5963 83.7543 72.1543 84.5794L73.5149 86.5912C74.7046 88.3504 77.2953 88.3504 78.485 86.5912L79.8456 84.5794C80.4035 83.7543 81.3346 83.26 82.3306 83.26H119C120.657 83.26 122 81.9168 122 80.26V23Z"/>
</mask>
<path fill-rule="evenodd" clip-rule="evenodd" d="M122 23C122 21.3431 120.657 20 119 20H33C31.3431 20 30 21.3431 30 23V80.26C30 81.9168 31.3431 83.26 33 83.26H69.6692C70.6652 83.26 71.5963 83.7543 72.1543 84.5794L73.5149 86.5912C74.7046 88.3504 77.2953 88.3504 78.485 86.5912L79.8456 84.5794C80.4035 83.7543 81.3346 83.26 82.3306 83.26H119C120.657 83.26 122 81.9168 122 80.26V23Z" fill="white"/>
<path d="M79.8456 84.5794L79.0172 84.0192L79.8456 84.5794ZM73.5149 86.5912L74.3432 86.031L73.5149 86.5912ZM78.485 86.5912L79.3133 87.1514L78.485 86.5912ZM33 21H119V19H33V21ZM31 80.26V23H29V80.26H31ZM69.6692 82.26H33V84.26H69.6692V82.26ZM74.3432 86.031L72.9827 84.0191L71.3259 85.1396L72.6865 87.1514L74.3432 86.031ZM79.0172 84.0192L77.6566 86.031L79.3133 87.1514L80.6739 85.1396L79.0172 84.0192ZM119 82.26H82.3306V84.26H119V82.26ZM121 23V80.26H123V23H121ZM119 84.26C121.209 84.26 123 82.4691 123 80.26H121C121 81.3645 120.105 82.26 119 82.26V84.26ZM80.6739 85.1396C81.0459 84.5895 81.6666 84.26 82.3306 84.26V82.26C81.0026 82.26 79.7612 82.9191 79.0172 84.0192L80.6739 85.1396ZM72.6865 87.1514C74.2728 89.497 77.7271 89.497 79.3133 87.1514L77.6566 86.031C76.8635 87.2038 75.1364 87.2038 74.3432 86.031L72.6865 87.1514ZM69.6692 84.26C70.3332 84.26 70.954 84.5895 71.3259 85.1396L72.9827 84.0191C72.2387 82.9191 70.9973 82.26 69.6692 82.26V84.26ZM29 80.26C29 82.4691 30.7909 84.26 33 84.26V82.26C31.8954 82.26 31 81.3645 31 80.26H29ZM119 21C120.105 21 121 21.8954 121 23H123C123 20.7909 121.209 19 119 19V21ZM33 19C30.7909 19 29 20.7909 29 23H31C31 21.8954 31.8954 21 33 21V19Z" fill="#D8E0F7" mask="url(#path-3-inside-2_3_23)"/>
<path d="M59 53.249C59 43.7221 67.6683 34.999 77.1277 34.999C86.587 34.999 92 44.251 92 53.5" stroke="#5F82FF" stroke-width="4" stroke-linecap="round" stroke-linejoin="round"/>
<path fill-rule="evenodd" clip-rule="evenodd" d="M80.1367 49.5377C78.101 47.4874 74.8005 47.4874 72.7648 49.5377C70.7291 51.5879 62.3019 65.9999 63.0466 66.7499C63.7913 67.4999 78.101 59.0125 80.1367 56.9623C82.1724 54.912 82.1724 51.5879 80.1367 49.5377ZM76.4508 51.7499C75.6282 51.7499 74.9614 52.4215 74.9614 53.2499C74.9614 54.0784 75.6282 54.7499 76.4508 54.7499C77.2733 54.7499 77.9401 54.0784 77.9401 53.2499C77.9401 52.4215 77.2733 51.7499 76.4508 51.7499Z" fill="#5F82FF"/>
<ellipse cx="61.2341" cy="62.25" rx="1.48936" ry="1.5" fill="#5F82FF"/>
<path d="M77.6169 70.5C77.6169 71.3284 76.9501 72 76.1276 72C75.305 72 74.6382 71.3284 74.6382 70.5C74.6382 69.6716 75.305 69 76.1276 69C76.9501 69 77.6169 69.6716 77.6169 70.5Z" fill="#5F82FF"/>
</g>
<path d="M92 53.5C92 63.0269 84.4704 70.25 75.011 70.25C73.2676 70.25 71.585 69.9876 70 69.5" stroke="#5F82FF" stroke-width="4" stroke-linecap="round" stroke-linejoin="round"/>
</g>
<defs>
<filter id="filter0_d_3_23" x="26" y="20" width="100" height="75.9106" filterUnits="userSpaceOnUse" color-interpolation-filters="sRGB">
<feFlood flood-opacity="0" result="BackgroundImageFix"/>
<feColorMatrix in="SourceAlpha" type="matrix" values="0 0 0 0 0 0 0 0 0 0 0 0 0 0 0 0 0 0 127 0" result="hardAlpha"/>
<feOffset dy="4"/>
<feGaussianBlur stdDeviation="2"/>
<feComposite in2="hardAlpha" operator="out"/>
<feColorMatrix type="matrix" values="0 0 0 0 0 0 0 0 0 0 0 0 0 0 0 0 0 0 0.25 0"/>
<feBlend mode="normal" in2="BackgroundImageFix" result="effect1_dropShadow_3_23"/>
<feBlend mode="normal" in="SourceGraphic" in2="effect1_dropShadow_3_23" result="shape"/>
</filter>
<filter id="filter1_d_3_23" x="0" y="0" width="152" height="127.911" filterUnits="userSpaceOnUse" color-interpolation-filters="sRGB">
<feFlood flood-opacity="0" result="BackgroundImageFix"/>
<feColorMatrix in="SourceAlpha" type="matrix" values="0 0 0 0 0 0 0 0 0 0 0 0 0 0 0 0 0 0 127 0" result="hardAlpha"/>
<feOffset dy="10"/>
<feGaussianBlur stdDeviation="15"/>
<feColorMatrix type="matrix" values="0 0 0 0 0.894415 0 0 0 0 0.918495 0 0 0 0 0.984716 0 0 0 1 0"/>
<feBlend mode="normal" in2="BackgroundImageFix" result="effect1_dropShadow_3_23"/>
<feBlend mode="normal" in="SourceGraphic" in2="effect1_dropShadow_3_23" result="shape"/>
</filter>
</defs>
</svg>
